<?xml version="1.0" standalone="no"?>
<!DOCTYPE svg PUBLIC "-//W3C//DTD SVG 20010904//EN"
 "http://www.w3.org/TR/2001/REC-SVG-20010904/DTD/svg10.dtd">
<svg version="1.0" xmlns="http://www.w3.org/2000/svg"
 width="1280.000000pt" height="1024.000000pt" viewBox="0 0 1280.000000 1024.000000"
 preserveAspectRatio="xMidYMid meet">
<metadata>
Created by potrace 1.16, written by Peter Selinger 2001-2019
</metadata>
<g transform="translate(0.000000,1024.000000) scale(0.100000,-0.100000)"
fill="#000000" stroke="none">
<path d="M6025 9349 c-1000 -86 -1911 -508 -2621 -1214 -143 -142 -169 -186
-169 -285 1 -144 110 -250 258 -250 99 0 121 13 277 165 226 221 352 324 576
472 164 109 252 159 444 252 412 198 829 310 1309 352 171 15 574 6 740 -15
993 -130 1850 -614 2478 -1398 479 -598 771 -1381 800 -2143 l6 -160 -110 107
c-122 120 -159 140 -248 140 -81 0 -136 -24 -188 -82 -50 -55 -67 -103 -67
-186 0 -108 12 -124 396 -505 380 -378 372 -372 489 -371 114 0 125 8 492 374
375 374 377 377 377 508 1 89 -25 151 -81 201 -50 43 -97 61 -163 62 -96 1
-124 -15 -251 -140 l-116 -114 -6 178 c-12 368 -81 749 -204 1128 -342 1056
-1106 1953 -2098 2466 -485 251 -1002 402 -1549 454 -173 16 -600 18 -771 4z"/>
<path d="M5952 7699 c-53 -13 -107 -64 -121 -116 -6 -21 -11 -131 -11 -245 l0
-206 -82 -28 c-103 -34 -276 -106 -336 -139 l-46 -26 -160 159 c-176 174 -200
189 -284 177 -46 -6 -57 -16 -351 -308 -308 -307 -340 -346 -341 -415 0 -59
26 -95 183 -251 l155 -154 -59 -120 c-32 -66 -74 -171 -95 -233 l-37 -113
-227 -3 c-226 -3 -227 -3 -267 -30 -79 -52 -78 -47 -78 -533 0 -486 -1 -481
78 -533 40 -27 41 -27 268 -30 l228 -3 22 -67 c29 -89 101 -267 138 -340 l30
-59 -155 -154 c-172 -172 -192 -203 -179 -286 6 -47 13 -55 313 -356 336 -336
348 -346 439 -332 46 6 56 15 213 170 l165 163 119 -59 c66 -32 170 -75 232
-95 l113 -37 3 -227 c3 -226 3 -227 30 -267 52 -79 47 -78 533 -78 486 0 481
-1 533 78 27 40 27 41 30 268 l3 228 82 27 c102 34 276 106 335 139 l46 26
160 -159 c176 -174 200 -189 284 -177 46 6 56 16 359 318 340 340 343 345 328
441 -6 36 -25 60 -170 206 l-163 165 59 120 c32 66 75 170 95 232 l37 112 227
3 c226 3 227 3 267 30 79 52 78 47 78 533 0 486 1 481 -78 533 -40 27 -41 27
-267 30 l-227 3 -48 134 c-27 74 -70 179 -96 232 l-48 98 154 155 c154 154
185 198 185 257 -1 63 -38 108 -336 405 -326 323 -333 328 -428 313 -36 -6
-60 -25 -206 -170 l-165 -163 -120 59 c-66 32 -170 75 -232 95 l-112 37 -3
227 c-3 226 -3 227 -30 267 -52 78 -50 78 -513 80 -240 1 -428 -3 -453 -8z
m639 -1445 c234 -40 450 -153 619 -324 173 -173 284 -386 324 -619 107 -626
-319 -1219 -952 -1327 -138 -24 -333 -15 -467 21 -112 29 -271 101 -365 165
-251 170 -436 463 -485 765 -99 610 307 1191 920 1315 115 23 283 25 406 4z"/>
<path d="M6270 5714 c-323 -69 -533 -393 -465 -719 69 -328 392 -539 720 -470
328 69 539 392 470 720 -69 329 -395 540 -725 469z"/>
<path d="M2343 5999 c-23 -4 -56 -15 -75 -24 -47 -24 -705 -681 -730 -729 -11
-22 -23 -65 -25 -96 -15 -159 96 -291 245 -293 98 -1 126 15 255 141 l117 116
0 -125 c0 -146 21 -381 50 -559 285 -1743 1616 -3125 3349 -3480 307 -63 439
-74 836 -75 386 0 499 9 785 61 602 109 1153 339 1658 691 156 109 277 207
450 365 162 147 243 240 260 297 53 175 -63 351 -229 351 -88 -1 -129 -26
-289 -184 -166 -162 -265 -247 -433 -369 -532 -388 -1147 -618 -1827 -683
-201 -20 -600 -14 -789 10 -602 79 -1142 282 -1636 617 -981 663 -1597 1761
-1642 2924 l-6 160 110 -107 c123 -120 158 -140 250 -140 112 -1 216 76 247
183 20 66 20 82 0 150 -15 51 -33 71 -372 412 -374 374 -380 379 -477 390 -22
2 -59 1 -82 -4z"/>
</g>
</svg>
