<?xml version="1.0" standalone="no"?>
<!DOCTYPE svg PUBLIC "-//W3C//DTD SVG 20010904//EN"
 "http://www.w3.org/TR/2001/REC-SVG-20010904/DTD/svg10.dtd">
<svg version="1.0" xmlns="http://www.w3.org/2000/svg"
 width="1280.000000pt" height="1024.000000pt" viewBox="0 0 1280.000000 1024.000000"
 preserveAspectRatio="xMidYMid meet">
<metadata>
Created by potrace 1.16, written by Peter Selinger 2001-2019
</metadata>
<g transform="translate(0.000000,1024.000000) scale(0.100000,-0.100000)"
fill="#000000" stroke="none">
<path d="M4967 9415 c-367 -60 -678 -218 -937 -475 -208 -207 -349 -441 -430
-711 -54 -183 -64 -263 -64 -499 0 -185 3 -230 23 -320 50 -235 150 -468 279
-650 75 -107 275 -312 369 -380 35 -25 102 -69 149 -97 79 -48 84 -53 63 -61
-13 -5 -60 -22 -104 -37 -115 -41 -383 -179 -503 -258 -222 -147 -459 -362
-616 -557 -236 -295 -421 -669 -510 -1030 -71 -288 -69 -270 -73 -1145 -4
-876 -7 -843 61 -903 34 -29 148 -77 381 -159 1039 -365 2090 -473 3140 -322
77 11 149 22 160 25 15 4 25 -2 34 -19 11 -21 8 -63 -20 -275 -35 -273 -35
-290 13 -363 20 -29 82 -64 442 -242 231 -114 438 -213 462 -219 32 -9 56 -9
101 1 57 12 60 14 251 207 l193 194 53 0 54 0 182 -184 c100 -102 198 -192
218 -202 50 -23 112 -29 158 -14 22 7 225 104 451 216 406 199 413 204 442
249 16 26 32 64 36 85 4 24 -6 134 -26 283 l-33 245 39 51 c45 58 16 51 333
81 140 13 225 26 245 36 41 21 85 62 102 95 8 14 60 223 115 465 85 366 101
449 98 501 -6 103 -27 124 -284 281 l-221 135 -12 58 -12 58 127 198 c70 109
135 216 145 238 21 45 24 102 9 155 -6 23 -116 167 -309 406 -323 400 -326
403 -428 412 -47 4 -77 -5 -288 -83 l-234 -88 -58 26 -58 26 -76 228 c-87 262
-95 280 -146 322 -60 50 -94 53 -598 49 -425 -3 -463 -4 -497 -22 l-38 -18
-47 53 c-276 319 -690 599 -1100 745 l-132 47 60 36 c372 225 650 598 759
1016 42 162 54 261 53 445 -1 246 -42 447 -138 670 -127 296 -381 589 -660
760 -164 101 -344 173 -540 217 -142 31 -467 41 -608 18z m466 -420 c455 -79
836 -399 991 -833 64 -179 88 -438 58 -618 -30 -179 -112 -382 -214 -531 -109
-159 -299 -324 -478 -413 -431 -216 -940 -170 -1327 119 -264 197 -444 492
-498 821 -26 155 -17 355 24 515 123 480 525 851 1016 939 107 19 321 20 428
1z m75 -3066 c617 -67 1184 -387 1554 -877 l70 -92 -19 -56 c-17 -52 -21 -56
-76 -81 l-58 -26 -222 84 c-201 76 -228 84 -292 84 -55 0 -78 -5 -106 -23 -40
-24 -588 -693 -626 -764 -28 -51 -30 -127 -4 -183 10 -22 75 -129 145 -239
l126 -198 -11 -57 -12 -57 -221 -136 c-257 -157 -278 -178 -284 -281 -3 -51
12 -129 87 -456 50 -217 89 -396 86 -399 -3 -3 -157 -6 -343 -6 -744 0 -1363
107 -2097 362 l-170 59 -3 629 c-2 529 0 649 13 757 81 649 448 1237 995 1596
302 199 647 323 995 360 118 12 362 13 473 0z m2722 -1135 c87 -259 96 -273
228 -329 48 -21 123 -57 168 -81 119 -65 143 -63 394 31 111 41 205 73 210 70
10 -6 340 -413 340 -419 0 -3 -44 -74 -99 -159 -174 -272 -176 -277 -141 -404
12 -43 30 -122 40 -175 31 -158 34 -162 275 -308 94 -57 175 -108 181 -114 8
-8 -6 -83 -50 -276 l-62 -265 -224 -21 c-124 -12 -234 -25 -245 -30 -43 -16
-78 -49 -132 -122 -31 -43 -79 -102 -106 -132 -61 -68 -87 -121 -87 -180 0
-25 11 -128 25 -229 14 -101 25 -191 25 -200 0 -13 -66 -50 -246 -136 l-245
-119 -167 171 c-137 139 -174 172 -207 181 -52 14 -388 14 -440 0 -33 -9 -70
-42 -207 -181 l-168 -171 -245 119 c-204 98 -245 122 -245 139 0 12 11 104 25
205 14 101 25 201 25 222 0 55 -22 103 -78 167 -26 30 -76 93 -112 140 -96
127 -102 130 -378 156 l-227 21 -61 265 c-46 197 -59 268 -50 276 6 6 88 57
181 114 241 146 244 150 275 308 10 53 28 133 40 177 33 116 25 139 -120 368
-66 103 -120 190 -120 193 0 6 328 412 339 419 5 3 100 -29 211 -70 250 -93
271 -95 392 -31 46 24 122 60 170 81 132 56 141 70 228 329 l72 216 273 0 273
0 72 -216z"/>
<path d="M7726 4140 c-152 -24 -330 -94 -452 -178 -374 -254 -551 -731 -435
-1173 135 -510 618 -849 1143 -799 141 14 248 44 373 105 229 111 389 271 500
500 264 540 39 1188 -502 1447 -145 70 -266 98 -433 103 -74 2 -162 0 -194 -5z
m296 -441 c74 -15 202 -78 269 -132 183 -147 273 -399 224 -632 -38 -184 -176
-361 -345 -444 -191 -93 -376 -94 -569 -1 -168 81 -304 257 -347 446 -61 275
85 579 337 703 46 22 109 47 139 55 66 18 219 20 292 5z"/>
</g>
</svg>
