<?xml version="1.0" standalone="no"?>
<!DOCTYPE svg PUBLIC "-//W3C//DTD SVG 20010904//EN"
 "http://www.w3.org/TR/2001/REC-SVG-20010904/DTD/svg10.dtd">
<svg version="1.0" xmlns="http://www.w3.org/2000/svg"
 width="1280.000000pt" height="1024.000000pt" viewBox="0 0 1280.000000 1024.000000"
 preserveAspectRatio="xMidYMid meet">
<metadata>
Created by potrace 1.16, written by Peter Selinger 2001-2019
</metadata>
<g transform="translate(0.000000,1024.000000) scale(0.100000,-0.100000)"
fill="#000000" stroke="none">
<path d="M6200 9900 c-282 -73 -509 -301 -580 -584 -27 -109 -27 -283 0 -392
68 -270 272 -486 538 -570 l82 -26 0 -164 0 -164 -1387 0 c-1367 0 -1388 0
-1421 -20 -18 -11 -41 -34 -52 -52 -19 -31 -20 -51 -20 -305 l0 -271 -72 -22
c-270 -81 -479 -301 -548 -574 -27 -109 -27 -283 0 -392 68 -270 272 -486 538
-570 l82 -26 0 -164 0 -164 -507 0 c-489 0 -509 -1 -541 -20 -18 -11 -41 -34
-52 -52 -19 -31 -20 -51 -20 -305 l0 -271 -72 -22 c-270 -81 -479 -301 -548
-574 -27 -109 -27 -283 0 -392 56 -225 209 -416 415 -519 125 -63 220 -85 365
-85 145 0 240 22 365 85 154 77 273 196 350 350 63 125 85 220 85 365 0 145
-22 240 -85 365 -98 196 -272 341 -482 405 l-73 22 0 164 0 164 960 0 960 0 0
-164 0 -164 -72 -22 c-211 -64 -387 -211 -483 -405 -63 -126 -85 -221 -85
-365 0 -144 22 -239 85 -365 100 -203 296 -359 519 -415 109 -27 283 -27 392
0 223 56 416 210 519 415 63 125 85 220 85 365 0 145 -22 240 -85 365 -98 196
-272 341 -482 405 l-73 22 0 271 c0 254 -1 274 -20 305 -11 18 -34 41 -52 52
-32 19 -52 20 -540 20 l-508 0 0 164 0 164 83 26 c264 83 470 302 537 570 27
109 27 283 0 392 -68 271 -279 493 -547 574 l-73 22 0 164 0 164 1280 0 1280
0 0 -2560 0 -2560 -1547 0 c-1527 0 -1548 0 -1581 -20 -18 -11 -41 -34 -52
-52 -19 -31 -20 -51 -20 -305 l0 -271 -72 -22 c-270 -81 -479 -301 -548 -574
-27 -109 -27 -283 0 -392 56 -225 209 -416 415 -519 125 -63 220 -85 365 -85
145 0 240 22 365 85 154 77 273 196 350 350 63 125 85 220 85 365 0 145 -22
240 -85 365 -98 196 -272 341 -482 405 l-73 22 0 164 0 164 880 0 880 0 0
-164 0 -164 -72 -22 c-211 -64 -387 -211 -483 -405 -63 -126 -85 -221 -85
-365 0 -144 22 -239 85 -365 100 -203 296 -359 519 -415 109 -27 283 -27 392
0 223 56 416 210 519 415 63 125 85 220 85 365 0 145 -22 240 -85 365 -98 196
-272 341 -482 405 l-73 22 0 164 0 164 960 0 960 0 0 -164 0 -164 -72 -22
c-211 -64 -387 -211 -483 -405 -63 -126 -85 -221 -85 -365 0 -144 22 -239 85
-365 100 -203 296 -359 519 -415 109 -27 283 -27 392 0 223 56 416 210 519
415 63 125 85 220 85 365 0 145 -22 240 -85 365 -98 196 -272 341 -482 405
l-73 22 0 164 0 164 960 0 960 0 0 -164 0 -164 -72 -22 c-270 -81 -479 -301
-548 -574 -27 -109 -27 -283 0 -392 56 -225 209 -416 415 -519 125 -63 220
-85 365 -85 145 0 240 22 365 85 154 77 273 196 350 350 63 125 85 220 85 365
0 145 -22 240 -85 365 -98 196 -272 341 -482 405 l-73 22 0 271 c0 254 -1 274
-20 305 -11 18 -34 41 -52 52 -33 20 -54 20 -1660 20 l-1628 0 0 2560 0 2560
1280 0 1280 0 0 -164 0 -164 -72 -22 c-270 -81 -479 -301 -548 -574 -27 -109
-27 -283 0 -392 68 -270 272 -486 538 -570 l82 -26 0 -164 0 -164 -507 0
c-489 0 -509 -1 -541 -20 -18 -11 -41 -34 -52 -52 -19 -31 -20 -51 -20 -305
l0 -271 -72 -22 c-270 -81 -479 -301 -548 -574 -27 -109 -27 -283 0 -392 56
-225 209 -416 415 -519 125 -63 220 -85 365 -85 145 0 240 22 365 85 205 103
359 296 415 519 27 109 27 283 0 392 -68 271 -279 493 -547 574 l-73 22 0 164
0 164 960 0 960 0 0 -164 0 -164 -72 -22 c-211 -64 -387 -211 -483 -405 -63
-126 -85 -221 -85 -365 0 -144 22 -239 85 -365 100 -203 296 -359 519 -415
109 -27 283 -27 392 0 223 56 416 210 519 415 63 125 85 220 85 365 0 145 -22
240 -85 365 -98 196 -272 341 -482 405 l-73 22 0 271 c0 254 -1 274 -20 305
-11 18 -34 41 -52 52 -32 19 -52 20 -540 20 l-508 0 0 164 0 164 83 26 c264
83 470 302 537 570 27 109 27 283 0 392 -68 271 -279 493 -547 574 l-73 22 0
271 c0 254 -1 274 -20 305 -11 18 -34 41 -52 52 -33 20 -54 20 -1420 20
l-1388 0 0 164 0 164 83 26 c208 65 375 208 472 401 63 125 85 220 85 365 0
145 -22 240 -85 365 -103 206 -294 359 -519 415 -107 27 -290 27 -396 0z m330
-327 c79 -22 126 -49 186 -105 105 -99 154 -210 154 -348 0 -263 -211 -473
-473 -472 -133 1 -248 53 -345 156 -83 88 -122 188 -122 316 0 132 39 229 129
323 128 135 291 180 471 130z m-2880 -2560 c79 -22 126 -49 186 -105 105 -99
154 -210 154 -348 0 -263 -211 -473 -473 -472 -133 1 -248 53 -345 156 -83 88
-122 188 -122 316 0 132 39 229 129 323 128 135 291 180 471 130z m5760 0 c79
-22 126 -49 186 -105 105 -99 154 -210 154 -348 0 -263 -211 -473 -473 -472
-133 1 -248 53 -345 156 -83 88 -122 188 -122 316 0 132 39 229 129 323 128
135 291 180 471 130z m-6880 -2560 c79 -22 126 -49 186 -105 105 -99 154 -210
154 -348 0 -263 -211 -473 -473 -472 -133 1 -248 53 -345 156 -83 88 -122 188
-122 316 0 132 39 229 129 323 128 135 291 180 471 130z m2240 0 c79 -22 126
-49 186 -105 105 -99 154 -210 154 -348 0 -263 -211 -473 -473 -472 -133 1
-248 53 -345 156 -83 88 -122 188 -122 316 0 132 39 229 129 323 128 135 291
180 471 130z m3520 0 c79 -22 126 -49 186 -105 105 -99 154 -210 154 -348 0
-263 -211 -473 -473 -472 -133 1 -248 53 -345 156 -83 88 -122 188 -122 316 0
132 39 229 129 323 128 135 291 180 471 130z m2240 0 c79 -22 126 -49 186
-105 105 -99 154 -210 154 -348 0 -263 -211 -473 -473 -472 -133 1 -248 53
-345 156 -83 88 -122 188 -122 316 0 132 39 229 129 323 128 135 291 180 471
130z m-7200 -2880 c79 -22 126 -49 186 -105 105 -99 154 -210 154 -348 0 -263
-211 -473 -473 -472 -133 1 -248 53 -345 156 -83 88 -122 188 -122 316 0 132
39 229 129 323 128 135 291 180 471 130z m2080 0 c79 -22 126 -49 186 -105
105 -99 154 -210 154 -348 0 -263 -211 -473 -473 -472 -133 1 -248 53 -345
156 -83 88 -122 188 -122 316 0 132 39 229 129 323 128 135 291 180 471 130z
m2240 0 c79 -22 126 -49 186 -105 105 -99 154 -210 154 -348 0 -263 -211 -473
-473 -472 -133 1 -248 53 -345 156 -83 88 -122 188 -122 316 0 132 39 229 129
323 128 135 291 180 471 130z m2240 0 c79 -22 126 -49 186 -105 105 -99 154
-210 154 -348 0 -263 -211 -473 -473 -472 -133 1 -248 53 -345 156 -83 88
-122 188 -122 316 0 132 39 229 129 323 128 135 291 180 471 130z"/>
</g>
</svg>
