<?xml version="1.0" standalone="no"?>
<!DOCTYPE svg PUBLIC "-//W3C//DTD SVG 20010904//EN"
 "http://www.w3.org/TR/2001/REC-SVG-20010904/DTD/svg10.dtd">
<svg version="1.0" xmlns="http://www.w3.org/2000/svg"
 width="1280.000000pt" height="1024.000000pt" viewBox="0 0 1280.000000 1024.000000"
 preserveAspectRatio="xMidYMid meet">
<metadata>
Created by potrace 1.16, written by Peter Selinger 2001-2019
</metadata>
<g transform="translate(0.000000,1024.000000) scale(0.100000,-0.100000)"
fill="#000000" stroke="none">
<path d="M6172 9701 c-120 -41 -204 -155 -211 -285 l-3 -71 -109 -43 -109 -44
-42 37 c-68 62 -119 80 -228 80 -80 0 -103 -4 -145 -25 -54 -26 -239 -198
-285 -266 -87 -126 -73 -303 34 -422 l37 -41 -22 -42 c-12 -24 -32 -70 -44
-103 l-23 -61 -74 -6 c-93 -8 -160 -41 -221 -109 -71 -79 -82 -123 -82 -330 0
-207 11 -251 82 -330 64 -71 129 -102 224 -108 l77 -4 12 -42 c7 -22 25 -69
41 -104 l28 -63 -43 -53 c-60 -74 -81 -134 -81 -227 1 -116 35 -176 177 -315
145 -141 179 -159 308 -159 109 0 160 18 228 80 l42 37 109 -44 110 -43 1 -57
c0 -129 86 -253 205 -297 49 -18 78 -21 235 -21 156 0 186 3 234 20 116 44
199 157 212 289 l6 68 105 42 105 43 31 -30 c18 -17 57 -43 87 -59 49 -25 65
-28 150 -28 89 0 99 2 156 33 41 22 97 70 168 141 133 136 161 188 161 306 0
93 -27 164 -89 233 l-37 41 22 42 c12 24 32 70 44 103 l23 61 75 6 c92 8 160
42 222 111 69 77 80 122 80 333 0 177 0 181 -29 242 -52 114 -151 182 -280
192 l-68 6 -23 61 c-12 33 -32 79 -44 103 l-22 42 40 45 c67 76 85 125 85 229
0 124 -19 160 -158 303 -145 148 -199 177 -331 176 -102 0 -151 -18 -224 -81
l-41 -35 -104 43 -104 42 -6 68 c-13 132 -96 245 -212 289 -77 28 -380 29
-462 1z m398 -189 c61 -30 80 -72 80 -174 0 -113 13 -140 77 -163 114 -39 212
-79 260 -106 34 -19 67 -29 93 -29 37 0 48 7 114 69 124 118 164 111 320 -49
104 -106 106 -110 106 -155 0 -59 -10 -77 -81 -151 -83 -84 -85 -101 -19 -234
28 -58 60 -136 71 -175 14 -47 31 -79 50 -97 28 -26 35 -28 120 -28 101 0 131
-11 173 -61 l27 -32 -3 -163 c-3 -157 -4 -163 -28 -190 -38 -40 -80 -54 -169
-54 -124 0 -130 -4 -177 -145 -15 -44 -46 -119 -70 -167 -62 -124 -61 -132 42
-240 60 -62 64 -69 64 -113 0 -64 -15 -87 -122 -191 -143 -140 -186 -145 -303
-34 -39 36 -83 70 -99 74 -22 5 -52 -4 -144 -48 -65 -30 -149 -64 -189 -76
-100 -30 -106 -39 -113 -170 -9 -176 -38 -200 -250 -200 -210 0 -241 25 -250
194 -7 134 -13 143 -126 180 -49 15 -129 48 -177 72 -129 64 -149 62 -241 -25
-120 -114 -157 -109 -304 33 -104 101 -122 128 -122 181 0 49 12 69 86 147 79
81 80 96 20 216 -24 48 -55 123 -70 167 -46 140 -52 145 -179 145 -96 0 -140
17 -174 69 -21 31 -23 45 -23 181 0 136 2 150 23 181 35 53 77 69 182 69 117
1 124 6 170 140 20 58 54 138 76 178 57 107 54 128 -25 210 -74 78 -86 98 -86
147 0 53 18 80 122 181 144 141 185 145 304 33 92 -87 111 -89 246 -24 51 25
130 57 175 71 112 35 117 42 123 174 8 176 38 200 250 200 109 0 142 -3 170
-18z"/>
<path d="M6180 8971 c-305 -67 -558 -265 -696 -546 -85 -173 -98 -234 -98
-455 0 -221 13 -282 98 -455 127 -257 350 -445 632 -531 84 -26 100 -28 284
-28 184 0 200 2 284 28 291 89 510 277 640 547 77 158 90 223 90 439 0 221
-13 282 -98 455 -103 208 -253 358 -461 461 -159 78 -236 96 -430 100 -129 3
-176 0 -245 -15z m440 -201 c97 -28 229 -97 307 -160 125 -103 228 -263 275
-426 32 -113 32 -315 0 -427 -41 -144 -115 -270 -217 -372 -103 -104 -227
-176 -371 -217 -114 -32 -316 -33 -428 0 -229 66 -414 216 -521 423 -70 135
-89 219 -89 379 0 157 13 218 78 355 108 228 327 402 573 456 114 25 283 20
393 -11z"/>
<path d="M3617 5740 c-195 -35 -376 -130 -514 -271 -84 -86 -127 -147 -179
-255 -65 -135 -88 -240 -88 -404 0 -168 24 -272 94 -416 198 -408 648 -612
1095 -498 86 22 236 96 316 155 355 263 479 759 290 1156 -126 263 -341 442
-621 518 -74 20 -316 29 -393 15z m242 -210 c248 -32 458 -182 566 -405 99
-205 101 -424 6 -620 -98 -203 -269 -346 -481 -402 -98 -26 -264 -23 -365 6
-330 93 -551 398 -532 735 10 181 72 326 195 457 137 145 297 220 512 238 9 0
53 -4 99 -9z"/>
<path d="M8867 5740 c-120 -21 -273 -82 -377 -153 -66 -45 -186 -163 -235
-232 -119 -167 -170 -336 -169 -555 1 -111 6 -152 27 -232 69 -261 247 -481
487 -603 201 -101 449 -127 675 -69 86 22 236 96 316 155 194 144 331 374 370
621 14 88 6 267 -16 357 -88 361 -377 636 -743 707 -79 15 -256 17 -335 4z
m242 -210 c290 -37 530 -241 617 -525 26 -85 26 -306 1 -389 -79 -255 -274
-446 -527 -513 -88 -23 -262 -23 -350 1 -340 91 -567 401 -547 746 10 175 73
322 195 451 137 145 297 220 512 238 9 0 53 -4 99 -9z"/>
<path d="M6285 5243 c-374 -46 -688 -294 -815 -641 -47 -130 -63 -237 -57
-387 7 -159 30 -253 97 -390 57 -117 122 -206 213 -292 117 -109 241 -180 402
-229 85 -27 101 -28 275 -28 172 0 191 2 273 27 272 84 492 267 614 512 161
323 129 724 -81 1019 -206 289 -574 453 -921 409z m259 -227 c158 -31 274 -94
402 -221 77 -77 98 -105 138 -185 69 -141 90 -236 84 -385 -8 -176 -54 -304
-166 -448 -93 -122 -267 -233 -427 -273 -90 -22 -256 -22 -348 0 -286 68 -505
286 -578 576 -18 72 -21 103 -16 210 6 137 22 204 77 311 108 213 317 372 551
418 70 14 201 12 283 -3z"/>
<path d="M2968 3550 c-343 -40 -641 -314 -707 -650 -6 -30 -31 -287 -56 -571
-33 -374 -43 -522 -36 -541 11 -30 77 -81 196 -153 310 -187 633 -303 1015
-362 161 -25 593 -25 765 0 153 23 319 60 464 103 62 19 115 34 116 32 1 -2
-4 -68 -12 -148 -8 -80 -11 -159 -8 -177 7 -39 38 -66 176 -151 361 -226 781
-369 1206 -413 154 -16 626 -6 756 15 418 69 781 207 1113 424 95 63 123 86
132 111 9 24 8 70 -3 183 -8 84 -13 153 -11 155 2 3 55 -11 117 -31 312 -95
598 -133 934 -123 361 10 682 81 994 220 227 100 478 252 505 306 15 28 12 69
-29 548 -25 285 -52 550 -60 588 -32 146 -94 261 -205 379 -88 93 -190 163
-298 204 -151 58 -128 57 -1017 57 l-820 0 -80 -23 c-300 -85 -520 -303 -594
-592 -12 -49 -24 -75 -33 -74 -7 1 -53 14 -103 30 l-90 28 -322 0 c-319 1
-322 1 -345 -21 -13 -12 -69 -99 -123 -192 -55 -94 -102 -171 -105 -171 -3 0
-51 79 -108 174 -57 96 -112 182 -124 193 -18 16 -44 18 -287 21 -291 3 -390
-5 -501 -43 -40 -14 -76 -23 -80 -20 -4 2 -10 23 -14 46 -11 69 -65 196 -117
273 -134 201 -357 338 -594 366 -105 12 -1504 12 -1607 0z m1692 -238 c150
-54 289 -170 358 -299 36 -68 72 -195 72 -254 0 -32 -8 -46 -56 -95 -105 -107
-190 -263 -223 -409 -6 -27 -22 -171 -35 -318 -13 -148 -28 -273 -32 -277 -14
-13 -239 -88 -344 -115 -258 -65 -607 -92 -866 -66 -381 39 -727 152 -1049
342 l-101 60 43 472 c24 274 48 497 58 532 45 164 165 309 316 384 145 72 120
70 1004 68 l790 -2 65 -23z m5194 13 c218 -46 419 -240 467 -450 6 -28 30
-261 53 -520 l42 -470 -50 -33 c-198 -129 -481 -249 -738 -312 -220 -54 -319
-65 -598 -65 -281 0 -384 11 -607 66 -122 29 -351 104 -366 118 -4 4 -19 129
-32 277 -28 305 -41 375 -95 491 -47 100 -84 155 -162 239 l-61 64 7 61 c4 33
16 88 26 122 61 195 250 368 452 412 96 21 1563 21 1662 0z m-3695 -815 l121
-201 -130 -375 c-72 -206 -130 -389 -130 -405 0 -37 -6 -26 157 -302 75 -125
147 -236 161 -247 33 -27 92 -26 126 1 14 11 92 130 171 263 123 205 145 249
145 283 0 26 -45 169 -125 399 -69 197 -126 366 -127 374 -1 8 52 104 117 213
l119 198 250 -3 c245 -3 253 -4 331 -31 208 -74 358 -227 420 -432 20 -66 31
-160 65 -550 22 -259 43 -484 45 -501 5 -29 2 -32 -119 -102 -309 -181 -656
-300 -1021 -348 -176 -23 -494 -23 -670 0 -389 52 -761 183 -1075 380 l-65 41
46 515 c50 553 56 583 122 700 46 83 178 208 264 253 126 66 186 76 450 76
l232 1 120 -200z m319 -747 c40 -115 72 -213 72 -220 0 -13 -142 -253 -150
-253 -8 0 -150 240 -150 253 0 18 144 427 150 427 3 0 38 -93 78 -207z"/>
</g>
</svg>
